# xmcd
# Generated: 2004-09-21 15:06:18 UTC
# Last Editor: PeteMaud
#
# Track frame offsets:
#       150
#       13358
#       27631
#       55665
#       76199
#       94352
#       114731
#       139508
#       153634
#       171868
#       186277
#
# Disc length: 2701 seconds
#
# Revision: 0
# Processed by: cddbd v1.5.1PL0 Copyright (c) Steve Scherf et al.
# Submitted via: cd-cat.pl V1.00
#
DISCID=940a8b0b
DTITLE=Mad Dog - Outlaw Blues
DYEAR=1999
DGENRE=RnB
TTITLE0=Matchbox Blues
TTITLE1=Truck Drivin' Man
TTITLE2=The Sky is Cryin'
TTITLE3=Baby Please Don't Go
TTITLE4=Same Old Blues
TTITLE5=Liquor Store in Texas
TTITLE6=Smokestack Lightnin'
TTITLE7=Roxette
TTITLE8=Boots
TTITLE9=Misiralu
TTITLE10=Stranger Blues
EXTD="Imagine John Lee Hooker meeting Hank Williams at midnight in a liquor
EXTD=store in Texas"\nMad Dog are:\n* Vince "The Viper" Whitmore ''drums''
EXTD=\n* Pete Hardy ''Electric/double bass''\n* Ade "John Henry" White ''Bl
EXTD=ues harp''\n* Ian "E" Roberts ''all guitars''\n* Bryn "Mag Dog" Davies
EXTD=''vocals''\n\nRecorded 12, 14 and 19 February 1999 at the Madhouse St
EXTD=udio, Crewe except track 11 which was recorded live at BBC Radio Stoke
EXTD=in May 1998.\n\nProduced and mixed by Steve Brookes and Ian Roberts.
EXTT0=Jefferson and Perkins
EXTT1=Terry Fell
EXTT2=Elmore James
EXTT3=Big Joe Williams
EXTT4=J J Cale
EXTT5=Joe Sun
EXTT6=Chester Burnette
EXTT7=Johnson/Brilleaux
EXTT8=Lee Hazlewood
EXTT9=Wise/Leeds/Russell/Roubanis
EXTT10=Terry/MacGhee
PLAYORDER=
